<svg width="36" height="36" viewBox="0 0 36 36" fill="none" xmlns="http://www.w3.org/2000/svg">
<g clip-path="url(#clip0_86_9)">
<path d="M1.944 0.395996C0.252 1.224 0 2.376 0 8.964V15.12H2.16H4.32V9.72V4.32H9.72H15.12V2.16V-3.8147e-06L8.928 0.0359955C5.508 0.0359955 2.376 0.215996 1.944 0.395996Z" fill="#02173D"/>
<path d="M20.88 2.16V4.32H26.28H31.68V9.72V15.12H33.84H36V9C36 5.4 35.856 2.556 35.604 2.052C34.776 0.251996 33.696 -3.8147e-06 27.036 -3.8147e-06H20.88V2.16Z" fill="#02173D"/>
<path d="M10.008 9.21602C7.27199 10.692 7.34399 14.94 10.08 16.38C12.132 17.46 14.652 16.74 15.66 14.76C17.568 11.052 13.68 7.20002 10.008 9.21602Z" fill="#02173D"/>
<path d="M21.528 9.21602C18.792 10.692 18.864 14.94 21.6 16.38C23.652 17.46 26.172 16.74 27.18 14.76C29.088 11.052 25.2 7.20002 21.528 9.21602ZM24.624 11.736C25.74 12.852 25.092 14.4 23.508 14.4C22.752 14.4 21.96 13.5 21.96 12.636C21.96 12.132 23.004 11.16 23.58 11.16C23.832 11.16 24.336 11.412 24.624 11.736Z" fill="#02173D"/>
<path d="M10.008 20.376C7.27199 21.852 7.34399 26.1 10.08 27.54C12.132 28.62 14.652 27.9 15.66 25.92C17.568 22.212 13.68 18.36 10.008 20.376ZM13.104 22.896C14.22 24.012 13.572 25.56 11.988 25.56C11.232 25.56 10.44 24.66 10.44 23.796C10.44 23.292 11.484 22.32 12.06 22.32C12.312 22.32 12.816 22.572 13.104 22.896Z" fill="#02173D"/>
<path d="M21.528 20.376C18.792 21.852 18.864 26.1 21.6 27.54C23.652 28.62 26.172 27.9 27.18 25.92C29.088 22.212 25.2 18.36 21.528 20.376Z" fill="#02173D"/>
<path d="M-0.000918603 27.0009C-0.000918603 36.1089 -0.108918 36.0009 8.99908 36.0009H15.1191V33.8409V31.6809H9.71908H4.31908V26.2809V20.8809H2.15908H-0.000918603V27.0009Z" fill="#02173D"/>
<path d="M31.68 26.28V31.68H26.28H20.88V33.84V36H27C36.108 36 36 36.108 36 27V20.88H33.84H31.68V26.28Z" fill="#02173D"/>
</g>
<defs>
<clipPath id="clip0_86_9">
<rect width="36" height="36" fill="white"/>
</clipPath>
</defs>
</svg>
